<mxfile host="app.diagrams.net" modified="2023-02-17T07:58:44.358Z" agent="5.0 (Windows NT 10.0; Win64; x64) AppleWebKit/537.36 (KHTML, like Gecko) Chrome/110.0.0.0 Safari/537.36" etag="YXBnMlF5PdNPC3J9rO8M" version="20.8.20" type="github">
  <diagram name="페이지-1" id="VvsWKDYXX7uIbYFHnTTL">
    <mxGraphModel dx="1874" dy="1082" grid="1" gridSize="10" guides="1" tooltips="1" connect="1" arrows="1" fold="1" page="1" pageScale="1" pageWidth="1169" pageHeight="827" math="0" shadow="0">
      <root>
        <mxCell id="0" />
        <mxCell id="1" style="locked=1;" parent="0" />
        <mxCell id="amNahMT0--hdYTBqru7C-1" value="" style="rounded=0;whiteSpace=wrap;html=1;" vertex="1" parent="1">
          <mxGeometry x="40" y="40" width="1090" height="740" as="geometry" />
        </mxCell>
        <mxCell id="amNahMT0--hdYTBqru7C-2" value="제목 없는 레이어" parent="0" />
      </root>
    </mxGraphModel>
  </diagram>
</mxfile>
